<svg width="120.686" height="46.4" viewBox="0 0 120.686 46.4" fill="none" xmlns="http://www.w3.org/2000/svg">
<g id="Group 5">
<path id="Vector" d="M113.275 31.4095C112.245 31.4095 111.32 31.2165 110.5 30.8306C109.701 30.4442 109.06 29.9259 108.577 29.2756C108.114 28.6053 107.882 27.833 107.883 26.9587C107.883 25.8209 108.261 24.8962 109.018 24.1847C109.775 23.4732 110.857 22.9855 112.266 22.7216L115.956 21.9903C116.691 21.8479 117.196 21.6243 117.469 21.3196C117.743 21.0148 117.879 20.5677 117.879 19.9782L118.257 23.5446L112.96 24.6425C112.245 24.784 111.688 25.038 111.289 25.4044C110.91 25.7707 110.721 26.2787 110.721 26.9281C110.721 27.5988 110.984 28.1376 111.509 28.5443C112.056 28.9502 112.792 29.1534 113.716 29.1538C114.473 29.1538 115.167 28.9912 115.798 28.6661C116.449 28.3413 116.954 27.8942 117.312 27.3247C117.69 26.7352 117.879 26.0645 117.879 25.3126V19.9782C117.879 19.2463 117.606 18.6772 117.059 18.2708C116.533 17.8441 115.808 17.6307 114.883 17.6307C113.706 17.6307 112.802 17.9153 112.171 18.4844C111.541 19.0535 111.173 19.8562 111.068 20.8924L108.293 20.5271C108.398 19.4496 108.734 18.525 109.302 17.7531C109.87 16.9604 110.626 16.3505 111.572 15.9234C112.518 15.497 113.643 15.2839 114.947 15.2839C116.796 15.2839 118.215 15.741 119.203 16.6553C120.191 17.5695 120.686 18.7483 120.686 20.1918V30.9517H117.942V28.9708C117.669 29.6411 117.112 30.2202 116.271 30.7082C115.451 31.1757 114.452 31.4095 113.275 31.4095ZM85.5248 30.9523V15.741H88.2679V17.4484C88.4781 16.8588 88.9408 16.3507 89.6557 15.924C90.3707 15.4972 91.2008 15.2839 92.1461 15.2839C93.0721 15.2839 93.9237 15.4768 94.7009 15.8628C95.4789 16.2491 95.9834 16.8285 96.2145 17.6007C96.4877 16.8888 96.9925 16.3299 97.7287 15.924C98.485 15.4972 99.3255 15.2839 100.25 15.2839C101.848 15.2839 103.068 15.731 103.909 16.6253C104.75 17.5191 105.17 18.8197 105.17 20.5271V30.9523H102.363V20.8924C102.363 19.8766 102.132 19.1147 101.67 18.6068C101.228 18.0781 100.576 17.8137 99.7147 17.8137C98.7687 17.8137 98.0328 18.1388 97.5072 18.7891C97.0025 19.4199 96.7501 20.3445 96.7501 21.5631V30.9523H93.9444V20.8924C93.9444 19.8766 93.7129 19.1147 93.2498 18.6068C92.8089 18.0781 92.1573 17.8137 91.2951 17.8137C90.349 17.8137 89.6132 18.1388 89.0876 18.7891C88.5828 19.4199 88.3305 20.3445 88.3305 21.5631V30.9523H85.5248ZM74.7931 36.4391C72.838 36.4391 71.2508 36.0022 70.0314 35.1283C68.8121 34.2544 68.0342 33.0352 67.6975 31.4707L70.4413 30.8911C70.6728 31.887 71.1669 32.6593 71.9236 33.208C72.6803 33.7771 73.6368 34.0617 74.7931 34.0617C76.1801 34.0617 77.2207 33.7161 77.9148 33.025C78.6294 32.3547 78.9867 31.3489 78.9867 30.0075V27.5988C78.6717 28.3503 78.0831 28.9602 77.2209 29.4286C76.3799 29.8957 75.4341 30.1293 74.3833 30.1293C72.9955 30.1293 71.7761 29.8245 70.7254 29.215C69.6742 28.5843 68.8543 27.7104 68.2657 26.5934C67.6771 25.4756 67.3828 24.1849 67.3828 22.7216C67.3828 21.2382 67.6769 19.9376 68.2651 18.8197C68.8541 17.7019 69.6635 16.8382 70.6935 16.2287C71.7447 15.5988 72.9746 15.2839 74.3833 15.2839C75.4345 15.2839 76.391 15.5174 77.2528 15.9846C78.1351 16.4317 78.7341 16.9906 79.0499 17.6613V15.741H81.7936V30.0069C81.7936 31.3474 81.5204 32.4957 80.9739 33.4516C80.4275 34.427 79.6287 35.1687 78.5775 35.6766C77.5471 36.1845 76.2857 36.4391 74.7931 36.4391ZM74.7299 27.7206C76.0752 27.7206 77.1473 27.2633 77.9461 26.3486C78.7658 25.4343 79.1759 24.2251 79.1763 22.7209C79.1763 21.1972 78.7662 19.978 77.9461 19.0633C77.126 18.1486 76.054 17.6913 74.7299 17.6913C73.3847 17.6913 72.302 18.1486 71.4819 19.0633C70.683 19.978 70.2836 21.1972 70.2836 22.7209C70.2836 24.2247 70.6935 25.4341 71.5131 26.3492C72.3332 27.2631 73.4059 27.7202 74.7299 27.7206ZM61.7188 30.9523V15.741H64.5258V30.9523H61.7188ZM61.6875 13.7901V9.46113H64.5571V13.7901H61.6875ZM45.5998 30.9523V9.46113H48.5638V30.9523H45.5998ZM46.1992 21.8679V19.2769H58.2761V21.8685L46.1992 21.8679ZM46.1992 12.0827V9.46113H59.4431V12.0827H46.1992Z" fill="var(--fill-0, #EBEDEF)"/>
<path id="Union" fill-rule="evenodd" clip-rule="evenodd" d="M23.1111 0C24.2785 0 25.4354 0.230134 26.5139 0.678526C27.5919 1.12695 28.5705 1.78577 29.3958 2.61418C30.221 3.44248 30.8775 4.42475 31.3241 5.50721L31.4815 5.91851C31.8246 6.88165 32 7.89807 32 8.92308C32 10.0949 31.7709 11.2563 31.3241 12.3389C30.8775 13.4214 30.221 14.4037 29.3958 15.232C29.0969 15.532 28.7764 15.8079 28.4398 16.0615C28.7764 16.3152 29.0969 16.591 29.3958 16.8911C30.221 17.7195 30.8775 18.7018 31.3241 19.7841C31.7709 20.8668 32 22.0281 32 23.2C32 24.3719 31.7709 25.5332 31.3241 26.6159C30.8775 27.6982 30.221 28.6805 29.3958 29.5089C28.5706 30.3373 27.5921 30.9962 26.5139 31.4446C25.4353 31.8931 24.2785 32.1231 23.1111 32.1231C21.9437 32.1231 20.7869 31.8931 19.7083 31.4446C19.0187 31.1578 18.3718 30.7821 17.7778 30.3338V37.4769C17.7778 39.8434 16.8406 42.1125 15.1736 43.7858C13.5067 45.4592 11.2464 46.4 8.88889 46.4C6.53137 46.4 4.27112 45.4591 2.60417 43.7858C0.937156 42.1124 0 39.8433 0 37.4769C0 35.1105 0.937156 32.8414 2.60417 31.168C2.9042 30.8669 3.22461 30.591 3.56019 30.3385C3.22461 30.086 2.9042 29.8101 2.60417 29.5089C0.937156 27.8355 0 25.5664 0 23.2C0 20.8336 0.937181 18.5645 2.60417 16.8911C2.9042 16.5899 3.22461 16.314 3.56019 16.0615C3.22461 15.809 2.9042 15.5332 2.60417 15.232C0.937175 13.5586 0 11.2896 0 8.92308C0 6.55653 0.937175 4.28759 2.60417 2.61418C4.27116 0.94078 6.53141 0 8.88889 0H23.1111ZM8.88889 32.1231C7.47446 32.1231 6.11828 32.6875 5.11806 33.6916C4.11788 34.6956 3.55556 36.0571 3.55556 37.4769C3.55556 38.8967 4.11788 40.2583 5.11806 41.2623C6.11828 42.2663 7.47446 42.8308 8.88889 42.8308C10.3033 42.8308 11.6595 42.2663 12.6597 41.2623C13.6599 40.2582 14.2222 38.8967 14.2222 37.4769V32.1231H8.88889ZM8.88889 17.8462C7.4744 17.8462 6.11825 18.4106 5.11806 19.4147C4.11786 20.4187 3.55556 21.7802 3.55556 23.2C3.55556 24.6198 4.11788 25.9813 5.11806 26.9853C6.11828 27.9894 7.47446 28.5538 8.88889 28.5538H14.2222V17.8462H8.88889ZM23.1111 17.8462C22.4107 17.8462 21.7166 17.9837 21.0694 18.2528C20.4226 18.5219 19.8355 18.9175 19.3403 19.4147C18.8449 19.912 18.4507 20.5014 18.1829 21.1505C17.9148 21.8 17.7778 22.4969 17.7778 23.2C17.7778 23.9031 17.9148 24.6 18.1829 25.2495C18.4507 25.8987 18.8449 26.488 19.3403 26.9853C19.8357 27.4826 20.4228 27.8784 21.0694 28.1472C21.7165 28.4163 22.4107 28.5538 23.1111 28.5538C23.8116 28.5538 24.5057 28.4163 25.1528 28.1472C25.7995 27.8784 26.3866 27.4826 26.8819 26.9853C27.3773 26.488 27.7715 25.8987 28.0394 25.2495C28.3074 24.6 28.4444 23.9031 28.4444 23.2C28.4444 22.4969 28.3074 21.8 28.0394 21.1505C27.7716 20.5014 27.3773 19.912 26.8819 19.4147C26.3867 18.9175 25.7996 18.5219 25.1528 18.2528C24.5056 17.9837 23.8116 17.8462 23.1111 17.8462ZM8.88889 3.56923C7.4744 3.56923 6.11825 4.1337 5.11806 5.13774C4.11786 6.14178 3.55556 7.50315 3.55556 8.92308C3.55556 10.343 4.11786 11.7044 5.11806 12.7084C6.11825 13.7125 7.4744 14.2769 8.88889 14.2769H14.2222V3.56923H8.88889ZM17.7778 14.2769H23.1111C23.8116 14.2769 24.5056 14.1393 25.1528 13.8703C25.7996 13.6012 26.3867 13.2055 26.8819 12.7084C27.3773 12.2112 27.7715 11.6219 28.0394 10.9726L28.2153 10.4776C28.3674 9.97461 28.4444 9.45071 28.4444 8.92308C28.4444 8.22 28.3074 7.52305 28.0394 6.87356C27.7715 6.22425 27.3773 5.63494 26.8819 5.13774C26.3867 4.64061 25.7996 4.24495 25.1528 3.97588C24.5056 3.70681 23.8116 3.56923 23.1111 3.56923H17.7778V14.2769Z" fill="var(--fill-0, #EBEDEF)"/>
</g>
</svg>
