<svg width="38" height="38" viewBox="0 0 38 38" fill="none" xmlns="http://www.w3.org/2000/svg">
<g id="linkedin.com-1 2">
<path id="Vector" d="M36 4.5V33.5C36 34.163 35.7366 34.7989 35.2678 35.2678C34.7989 35.7366 34.163 36 33.5 36H4.5C3.83696 36 3.20107 35.7366 2.73223 35.2678C2.26339 34.7989 2 34.163 2 33.5V4.5C2 3.83696 2.26339 3.20107 2.73223 2.73223C3.20107 2.26339 3.83696 2 4.5 2L33.5 2C34.163 2 34.7989 2.26339 35.2678 2.73223C35.7366 3.20107 36 3.83696 36 4.5ZM12 15H7V31H12V15ZM12.45 9.5C12.4526 9.12179 12.3807 8.74677 12.2384 8.39634C12.0961 8.04591 11.8862 7.72695 11.6206 7.45765C11.3551 7.18836 11.039 6.97402 10.6906 6.82686C10.3422 6.67971 9.96821 6.60262 9.59 6.6H9.5C8.73087 6.6 7.99325 6.90553 7.44939 7.44939C6.90553 7.99325 6.6 8.73087 6.6 9.5C6.6 10.2691 6.90553 11.0068 7.44939 11.5506C7.99325 12.0945 8.73087 12.4 9.5 12.4C9.87824 12.4093 10.2546 12.344 10.6076 12.2078C10.9606 12.0716 11.2833 11.8672 11.5572 11.6062C11.8312 11.3453 12.051 11.0329 12.2042 10.6869C12.3574 10.341 12.4409 9.96824 12.45 9.59V9.5ZM31 21.28C31 16.47 27.94 14.6 24.9 14.6C23.9046 14.5502 22.9136 14.7622 22.0258 15.2149C21.1379 15.6676 20.3843 16.3451 19.84 17.18H19.7V15H15V31H20V22.49C19.9277 21.6184 20.2023 20.7535 20.764 20.0832C21.3257 19.4129 22.1292 18.9913 23 18.91H23.19C24.78 18.91 25.96 19.91 25.96 22.43V31H30.96L31 21.28Z" fill="var(--fill-0, white)"/>
</g>
</svg>
