<svg width="48" height="48" viewBox="0 0 48 48" fill="none" xmlns="http://www.w3.org/2000/svg">
<g id="Logo">
<g id="Vector">
<path d="M41.0165 16.5416C41.0165 14.9762 40.1859 13.5278 38.8347 12.7373L26.0965 5.28636C24.7254 4.48449 23.0291 4.48256 21.6562 5.2812L8.83535 12.7391L8.58661 12.8949C7.37736 13.7102 6.64404 15.0774 6.64404 16.5485V31.5331C6.64404 33.1004 7.47638 34.5502 8.83019 35.3399L21.6097 42.7943C22.8961 43.5447 24.4681 43.5921 25.7901 42.9355L26.0509 42.7943L38.8304 35.3399C40.1842 34.5502 41.0165 33.1004 41.0165 31.5331V16.5416ZM43.6605 31.5331C43.6605 34.0407 42.3287 36.3597 40.1627 37.6233L27.3832 45.0786C25.1879 46.3592 22.4727 46.3592 20.2773 45.0786L7.49784 37.6233C5.3319 36.3597 4 34.0407 4 31.5331V16.5485C4 14.0377 5.33532 11.7164 7.50559 10.4539L20.3264 2.99521C22.5233 1.71729 25.2385 1.72055 27.4323 3.00381L40.1696 10.4557C42.3316 11.7203 43.6605 14.0369 43.6605 16.5416V31.5331Z" fill="var(--fill-0, white)"/>
<path d="M24.932 26.0221V40.1236C24.932 41.0971 25.6154 41.4917 26.4585 41.005L33.925 36.6942C34.6035 36.3024 35.3027 35.8232 36.0227 35.2564C36.7565 34.6649 37.435 33.9962 38.0581 33.2503C38.695 32.4797 39.2073 31.6383 39.595 30.7262C39.9965 29.7893 40.1973 28.7752 40.1973 27.684C40.1973 26.8111 40.0242 26.1808 39.6781 25.7931C39.3458 25.3973 38.9027 25.1831 38.3488 25.1503C37.9928 25.1124 37.6216 25.1269 37.2354 25.1939C37.8625 24.5521 38.3513 23.8736 38.7019 23.1586C39.1865 22.1737 39.4288 21.1777 39.4288 20.1704C39.4288 19.2975 39.1935 18.6779 38.7227 18.3118C38.2658 17.9377 37.5873 17.8342 36.6873 18.0012C35.8012 18.1603 34.7004 18.6196 33.385 19.379L26.4585 23.378C25.6154 23.8648 24.932 25.0486 24.932 26.0221ZM34.0081 32.6424L28.7743 35.6641V32.3402L33.9042 29.3784C34.195 29.2105 34.5204 29.073 34.8804 28.9659C35.2404 28.842 35.545 28.8256 35.7942 28.9167C36.0573 28.9831 36.1889 29.2513 36.1889 29.7213C36.1889 30.1074 36.0919 30.4824 35.8981 30.8461C35.7042 31.193 35.4412 31.5212 35.1089 31.8306C34.7904 32.1319 34.4235 32.4025 34.0081 32.6424ZM33.2604 26.2751L28.7743 28.8652V26.0449L33.1981 23.4908C33.8212 23.131 34.3404 22.932 34.7558 22.8936C35.185 22.8472 35.3996 23.0759 35.3996 23.5795C35.3996 23.8985 35.3096 24.219 35.1296 24.5412C34.9496 24.8633 34.7004 25.1751 34.3819 25.4765C34.0635 25.7611 33.6896 26.0273 33.2604 26.2751Z" fill="var(--fill-0, white)"/>
<path d="M11.4327 24.6996L15.0066 32.6204C15.1496 32.9373 15.3823 33.211 15.6306 33.3544L16.008 33.5722C16.256 33.7154 16.4885 33.7106 16.6315 33.5592L20.2046 29.7773C20.1776 30.1837 20.1562 30.5904 20.1401 30.9972C20.0929 32.1954 20.0693 33.4912 20.0693 34.8846V38.0826C20.0693 39.0561 20.7527 40.2399 21.5958 40.7267L21.9252 40.9168C22.7683 41.4036 23.4517 41.009 23.4517 40.0355V25.934C23.4517 24.9605 22.7683 23.7767 21.9252 23.2899L21.2124 22.8784C20.698 22.5814 20.2181 22.6036 19.9359 22.9375L15.8191 27.8091L11.7022 18.1837C11.42 17.524 10.9402 16.9477 10.4257 16.6507L9.71293 16.2392C8.86984 15.7524 8.18639 16.147 8.18639 17.1205V31.222C8.18639 32.1955 8.86984 33.3793 9.71293 33.8661L10.0423 34.0563C10.8854 34.543 11.5689 34.1484 11.5689 33.1749V29.9769C11.5689 28.5835 11.5452 27.2605 11.498 26.0077C11.4818 25.5778 11.46 25.1418 11.4327 24.6996Z" fill="var(--fill-0, white)"/>
<path fill-rule="evenodd" clip-rule="evenodd" d="M22.6656 22.056C23.5086 22.5428 24.8756 22.5428 25.7186 22.056L31.445 18.7499C32.7108 18.0191 33.6338 17.2512 34.2141 16.4461C34.7943 15.6411 35.0773 14.8398 35.0629 14.0422C35.0467 13.229 34.7579 12.4557 34.1964 11.7222C33.633 10.9731 32.8425 10.3048 31.8248 9.71719C30.8216 9.13802 29.6785 8.69 28.3955 8.37312C27.1252 8.04894 25.7921 7.87852 24.3962 7.86185C23.0003 7.84519 21.5988 8.00801 20.1918 8.35032C18.7828 8.67693 17.4455 9.20563 16.1797 9.93643L10.4533 13.2426C9.6102 13.7293 9.6102 14.5185 10.4533 15.0053L22.6656 22.056ZM16.4152 14.1064L19.8139 12.1442C20.548 11.7204 21.2972 11.4221 22.0615 11.2495C22.8112 11.0685 23.5396 10.9921 24.2467 11.0203C24.9664 11.0412 25.6412 11.1385 26.271 11.3121C26.8989 11.47 27.4527 11.6874 27.9325 11.9644C28.4123 12.2414 28.7962 12.5653 29.0842 12.9363C29.3703 13.2915 29.5315 13.6769 29.5677 14.0924C29.6166 14.5007 29.4916 14.9254 29.1926 15.3666C28.879 15.7995 28.3551 16.2278 27.621 16.6517L24.2224 18.6139L16.4152 14.1064Z" fill="var(--fill-0, white)"/>
</g>
</g>
</svg>
