<svg width="129.382" height="47.7377" viewBox="0 0 129.382 47.7377" fill="none" xmlns="http://www.w3.org/2000/svg">
<g id="Group">
<path id="Vector" d="M8.39233e-05 11.9349C8.39233e-05 5.34884 5.29838 0 11.8245 0H35.4769C42.0049 0 47.3032 5.34698 47.3032 11.9349V35.8028C47.3032 42.3907 42.0049 47.7377 35.4769 47.7377H11.8245C5.29838 47.7395 8.39233e-05 42.3907 8.39233e-05 35.8046V11.9349Z" fill="var(--fill-0, #EBEDEF)"/>
<path id="Vector_2" fill-rule="evenodd" clip-rule="evenodd" d="M31.4451 9.10703H27.1552L30.7354 15.4512L22.8635 9.10703H18.5736L22.5095 16.8559L14.2837 9.10703H9.99383L14.2837 18.9787L9.99383 38.7201H14.2837L22.5095 17.574L18.5736 38.7201H22.8635L30.7354 16.1582L27.1552 38.7201H31.4451L39.317 14.0466L31.4451 9.11633V9.10703Z" fill="var(--fill-0, #1F2124)"/>
<g id="Group_2">
<path id="Vector_3" d="M97.9641 26.056V36.6142H102.245V26.7053C102.245 22.2886 108.196 22.2886 108.196 22.2886V17.9965C108.196 17.9965 106.535 18.0746 105.22 18.3742C101.496 19.217 97.9641 21.0774 97.9641 26.0653V26.056Z" fill="var(--fill-0, #EBEDEF)"/>
<path id="Vector_4" d="M65.6637 17.7737C67.3339 17.7737 69.4171 18.7225 70.549 20.3988C71.7197 18.8788 73.6591 17.8407 76.0483 17.8035C79.0809 17.7644 82.8343 19.6732 82.8343 25.3886V36.5867H78.5536V25.3886C78.5536 23.4798 77.1913 22.1142 75.1468 22.1142C73.1023 22.1142 71.7381 23.4798 71.7381 25.3886V36.5867H67.4574V25.3886C67.4574 23.4798 66.0951 22.1142 64.0506 22.1142C62.0061 22.1142 60.605 23.4798 60.605 25.3886V36.5867H56.1031V18.3263H60.605V20.157C61.8236 18.6742 63.5989 17.7551 65.6821 17.7551L65.6637 17.7737Z" fill="var(--fill-0, #EBEDEF)"/>
<path id="Vector_5" d="M92.6952 18.5684V36.6056H88.3371V18.5684H92.6952Z" fill="var(--fill-0, #EBEDEF)"/>
<path id="Vector_6" d="M90.5053 15.701C91.8492 15.701 92.9332 14.6071 92.9332 13.2601C92.9332 11.9131 91.8492 10.8192 90.5053 10.8192C89.1614 10.8192 88.0774 11.9131 88.0774 13.2601C88.0774 14.6071 89.1614 15.701 90.5053 15.701Z" fill="var(--fill-0, #EBEDEF)"/>
<path id="Vector_7" d="M119.83 17.7363C114.55 17.7363 110.279 22.0284 110.279 27.327C110.279 32.6257 114.56 36.9177 119.83 36.9177C125.101 36.9177 129.382 32.6257 129.382 27.327C129.382 22.0284 125.101 17.7363 119.83 17.7363ZM119.83 32.6052C116.846 32.6052 114.427 30.1736 114.427 27.1708C114.427 24.168 116.846 21.7363 119.83 21.7363C122.815 21.7363 125.235 24.168 125.235 27.1708C125.235 30.1736 122.817 32.6052 119.83 32.6052Z" fill="var(--fill-0, #EBEDEF)"/>
</g>
</g>
</svg>
