<svg width="48" height="48" viewBox="0 0 48 48" fill="none" xmlns="http://www.w3.org/2000/svg">
<g id="Close Button">
<path id="Vector" d="M24 26.8L18.2 32.6C17.8333 32.9667 17.3667 33.15 16.8 33.15C16.2333 33.15 15.7667 32.9667 15.4 32.6C15.0333 32.2333 14.85 31.7667 14.85 31.2C14.85 30.6333 15.0333 30.1667 15.4 29.8L21.2 24L15.4 18.25C15.0333 17.8833 14.85 17.4167 14.85 16.85C14.85 16.2833 15.0333 15.8167 15.4 15.45C15.7667 15.0833 16.2333 14.9 16.8 14.9C17.3667 14.9 17.8333 15.0833 18.2 15.45L24 21.25L29.75 15.45C30.1167 15.0833 30.5833 14.9 31.15 14.9C31.7167 14.9 32.1833 15.0833 32.55 15.45C32.95 15.85 33.15 16.325 33.15 16.875C33.15 17.425 32.95 17.8833 32.55 18.25L26.75 24L32.55 29.8C32.9167 30.1667 33.1 30.6333 33.1 31.2C33.1 31.7667 32.9167 32.2333 32.55 32.6C32.15 33 31.675 33.2 31.125 33.2C30.575 33.2 30.1167 33 29.75 32.6L24 26.8Z" fill="var(--fill-0, white)"/>
</g>
</svg>
