<svg width="120" height="120" viewBox="0 0 120 120" fill="none" xmlns="http://www.w3.org/2000/svg">
<g id="Group 6">
<circle id="Ellipse 21" cx="60" cy="60" r="60" fill="var(--fill-0, #3B3F44)"/>
<g id="lock_24dp_1F1F1F_FILL0_wght400_GRAD0_opsz24 2">
<path id="Vector" d="M40.9091 91.8182C39.1591 91.8182 37.661 91.1951 36.4148 89.9489C35.1686 88.7027 34.5455 87.2046 34.5455 85.4546V53.6364C34.5455 51.8864 35.1686 50.3883 36.4148 49.142C37.661 47.8958 39.1591 47.2727 40.9091 47.2727H44.0909V40.9091C44.0909 36.5076 45.642 32.7557 48.7443 29.6534C51.8466 26.5511 55.5985 25 60 25C64.4015 25 68.1534 26.5511 71.2557 29.6534C74.358 32.7557 75.9091 36.5076 75.9091 40.9091V47.2727H79.0909C80.8409 47.2727 82.339 47.8958 83.5852 49.142C84.8314 50.3883 85.4546 51.8864 85.4546 53.6364V85.4546C85.4546 87.2046 84.8314 88.7027 83.5852 89.9489C82.339 91.1951 80.8409 91.8182 79.0909 91.8182H40.9091ZM40.9091 85.4546H79.0909V53.6364H40.9091V85.4546ZM64.4943 74.0398C65.7405 72.7936 66.3636 71.2955 66.3636 69.5455C66.3636 67.7955 65.7405 66.2974 64.4943 65.0511C63.2481 63.8049 61.75 63.1818 60 63.1818C58.25 63.1818 56.7519 63.8049 55.5057 65.0511C54.2595 66.2974 53.6364 67.7955 53.6364 69.5455C53.6364 71.2955 54.2595 72.7936 55.5057 74.0398C56.7519 75.286 58.25 75.9091 60 75.9091C61.75 75.9091 63.2481 75.286 64.4943 74.0398ZM50.4545 47.2727H69.5455V40.9091C69.5455 38.2576 68.6174 36.0038 66.7614 34.1477C64.9053 32.2917 62.6515 31.3636 60 31.3636C57.3485 31.3636 55.0947 32.2917 53.2386 34.1477C51.3826 36.0038 50.4545 38.2576 50.4545 40.9091V47.2727Z" fill="var(--fill-0, #95A1AC)"/>
</g>
</g>
</svg>
